<svg width="180" height="60" viewBox="0 0 180 60" fill="none" xmlns="http://www.w3.org/2000/svg">
<rect width="180" height="60" rx="5" fill="#4A99D3"/>
<path fill-rule="evenodd" clip-rule="evenodd" d="M22.9582 15.5223C22.6112 15.8714 22.4951 16.5681 22.4951 17.1495V42.6227C22.4951 43.2048 22.7267 43.7861 22.9582 44.2513L23.0743 44.3674L37.4281 30.0614V29.7123L22.9589 15.5216L22.9582 15.5223Z" fill="url(#paint0_linear_1_35)"/>
<path fill-rule="evenodd" clip-rule="evenodd" d="M42.174 34.7135L37.4279 29.9446V29.5955L42.174 24.8273L42.2894 24.9441L47.9617 28.2006C49.5824 29.131 49.5824 30.6435 47.9617 31.5739L42.174 34.7142V34.7135Z" fill="url(#paint1_linear_1_35)"/>
<path fill-rule="evenodd" clip-rule="evenodd" d="M42.2896 34.7134L37.3127 29.8284L22.9589 44.2499C23.6535 44.8319 24.695 44.8319 25.3896 44.3667L42.2896 34.7134Z" fill="url(#paint2_linear_1_35)"/>
<path fill-rule="evenodd" clip-rule="evenodd" d="M42.2894 24.9435L25.2747 15.4056C24.5794 14.9404 23.5364 14.9404 22.8425 15.5224L37.3118 29.8292L42.2894 24.9442V24.9435Z" fill="url(#paint3_linear_1_35)"/>
<path fill-rule="evenodd" clip-rule="evenodd" d="M65.904 18.5459C65.904 19.3602 65.5564 20.2906 65.0933 20.8719C64.7589 21.2058 64.3618 21.4702 63.9248 21.6499C63.4878 21.8297 63.0196 21.9212 62.5471 21.9192C61.621 21.9192 60.5787 21.5701 60.0002 20.8719C59.1902 20.1737 58.8425 19.244 58.8425 18.3129C58.8425 17.2664 59.1902 16.336 59.8848 15.7546C60.5787 15.0564 61.5048 14.5912 62.431 14.7074C62.8941 14.7074 63.3571 14.8235 63.8202 15.0564C64.1671 15.2894 64.6302 15.4055 64.9779 15.8707L64.3987 16.2198C63.8765 15.6985 63.1688 15.4056 62.431 15.4055C61.621 15.4055 60.9264 15.7546 60.3472 16.336C59.8276 16.8627 59.5366 17.573 59.5371 18.3129C59.5371 19.0111 59.8848 19.8254 60.3472 20.2906C60.8695 20.8121 61.5775 21.105 62.3156 21.1049C63.1256 21.1049 63.7048 20.7558 64.2833 20.2906C64.6302 19.8254 64.8618 19.2433 64.9779 18.7781H62.431V17.9645H65.7879C65.904 18.1968 65.904 18.4297 65.904 18.5459ZM71.2279 15.6385H68.1033V17.9645H70.8817V18.7781H68.1033V20.9888H71.2279V21.8023H67.1764V14.8235H71.2279V15.6385ZM74.9325 21.8023H74.0064V15.6385H72.0387V14.8235H76.7848V15.6385H74.8171V21.8031L74.9325 21.8023ZM80.3732 21.8023V14.8235H81.2994V21.6862C81.1833 21.8023 80.3732 21.8023 80.3732 21.8023ZM84.3086 21.8023V15.6385H82.3417V14.8235H87.0878V15.6385H85.1201C85.2355 15.6385 85.2355 21.8031 85.2355 21.8031H84.3094L84.3086 21.8023ZM96.2317 20.8719C94.8425 22.2683 92.6432 22.2683 91.0225 20.8719C90.3504 20.1903 89.9759 19.2701 89.9809 18.3129C89.9809 17.3825 90.3279 16.336 91.0225 15.7546C92.5278 14.2422 94.7271 14.2422 96.2317 15.6378C96.9037 16.3194 97.2783 17.2396 97.2732 18.1968C97.2732 19.244 96.9263 20.1745 96.2317 20.8719ZM91.7171 20.2906C92.7586 21.3378 94.4955 21.3378 95.4217 20.2906C95.9414 19.7636 96.2324 19.053 96.2317 18.3129C96.2317 17.6147 95.884 16.9173 95.4217 16.336C94.3794 15.2887 92.6432 15.2887 91.7171 16.336C91.1976 16.8627 90.9065 17.573 90.9071 18.3129C90.9071 19.0111 91.254 19.7093 91.7171 20.2906ZM98.547 21.8023V14.8235H99.704L103.061 20.1738V14.8235H103.987V21.6862H103.061L99.4725 15.9869V21.5694L98.5463 21.8023H98.547Z" fill="white" stroke="white" stroke-width="0.560673"/>
<path fill-rule="evenodd" clip-rule="evenodd" d="M89.8648 31.8054C87.0864 31.8054 85.0033 34.0153 85.1194 36.8066C85.2348 39.5985 87.3186 41.6923 90.0963 41.5755C92.7586 41.5755 94.8425 39.3656 94.8425 36.6904C94.8425 34.0153 92.7586 31.8054 89.8648 31.8054ZM89.8648 39.7147C88.2448 39.8315 86.8555 38.552 86.7394 36.9234C86.624 35.2948 87.8971 33.8992 89.5179 33.7831C91.1386 33.6662 92.5278 34.9457 92.6432 36.5743V36.8073C92.7586 38.319 91.4856 39.7147 89.8648 39.7147ZM79.1002 31.8054C76.3217 31.8054 74.2379 34.0153 74.354 36.8066C74.354 39.5985 76.5533 41.6923 79.3317 41.5755C81.994 41.5755 84.0771 39.3656 84.0771 36.6904C84.0771 34.0153 81.8779 31.8054 79.1002 31.8054ZM79.1002 39.7147C77.4794 39.8315 76.0902 38.552 75.9748 36.9234C75.8587 35.2948 77.1317 33.8992 78.7532 33.7831C80.3733 33.6662 81.7625 34.9457 81.8779 36.5743V36.8073C81.8779 38.319 80.7202 39.7147 79.0994 39.7147H79.1002ZM66.251 33.3171V35.4117H71.3448C71.2286 36.4582 70.8817 37.3886 70.1864 38.0868C69.1448 39.1333 67.7556 39.7147 66.3671 39.5985C63.3571 39.4824 61.0418 36.8073 61.1579 33.7831C61.2733 30.9911 63.5887 28.5489 66.3671 28.5489C67.7563 28.5489 69.1455 29.0141 70.071 30.0607L71.5756 28.6651C70.1864 27.2687 68.2187 26.5713 66.3671 26.5713C62.1995 26.339 58.7271 29.7116 58.4949 33.8992C58.2641 38.0868 61.621 41.5755 65.7879 41.8085H66.3671C68.3348 41.9246 70.3025 41.1103 71.6917 39.7147C73.0809 37.97 73.7748 35.7607 73.4279 33.5501H66.251V33.3179V33.3171ZM118.804 34.9457C118.225 33.0849 116.489 31.9215 114.521 31.8054C111.975 31.8054 109.89 33.7831 109.89 36.4575V36.6904C109.775 39.3656 111.859 41.5755 114.521 41.6916H114.752C116.373 41.6916 117.994 40.878 118.92 39.5985L117.183 38.4352C116.72 39.2495 115.794 39.7147 114.752 39.7147C114.246 39.716 113.75 39.575 113.32 39.3076C112.89 39.0403 112.544 38.6575 112.322 38.2029L118.919 35.4109L118.804 34.9457ZM112.09 36.5743C111.975 35.0626 113.132 33.7831 114.637 33.7831H114.752C115.562 33.6662 116.257 34.1322 116.605 34.8303L112.09 36.5743ZM106.649 41.3433H108.733V26.9203H106.649V41.3433ZM103.177 32.9688C102.366 32.2706 101.441 31.8054 100.399 31.8054C97.6202 31.9215 95.6532 34.2483 95.7686 37.0395C95.884 39.5985 97.8524 41.5755 100.399 41.6916C101.441 41.6916 102.366 41.3433 103.061 40.529H103.177V41.2271C103.409 42.6228 102.482 43.9023 101.093 44.0184H100.63C99.4725 44.0184 98.547 43.3202 98.084 42.2737L96.2317 43.088C96.9263 44.8327 98.6625 45.9961 100.63 45.9961C103.177 45.9961 105.261 44.4836 105.261 40.878V32.1545H103.177V32.9688ZM100.63 39.7154C99.0101 39.5985 97.8517 38.2029 97.8517 36.5743C97.9679 35.0626 99.1255 33.7831 100.63 33.7831C102.136 33.8992 103.409 35.0626 103.292 36.6904V36.8073C103.409 38.4352 102.251 39.7147 100.63 39.7147V39.7154ZM128.875 26.9203H123.666V41.3433H125.749V35.8762H128.759C131.19 36.1091 133.273 34.1322 133.505 31.6893C133.736 29.2464 131.769 27.1533 129.337 26.9203H128.874H128.875ZM128.875 33.8992H125.865V28.898H128.875C130.264 28.898 131.422 30.0607 131.422 31.3402C131.422 32.7365 130.379 33.8992 128.875 33.8992ZM142.418 31.8054C140.798 31.6893 139.292 32.6197 138.598 34.0153L140.566 34.8296C140.913 34.1314 141.723 33.6662 142.534 33.7824C143.692 33.6662 144.733 34.4805 144.849 35.6439V35.76C144.155 35.4109 143.344 35.1787 142.534 35.2948C140.566 35.2948 138.366 36.4582 138.366 38.552C138.482 40.4128 139.987 41.8085 141.955 41.6923H142.071C143.229 41.8085 144.155 41.2271 144.849 40.296H144.965V41.4594H147.049V35.8762C146.817 33.3179 144.849 31.8054 142.418 31.8054ZM142.071 39.7147C141.261 39.8315 140.566 39.3656 140.335 38.552C140.335 37.3886 141.492 37.0395 142.65 37.0395C143.344 37.0395 144.039 37.2725 144.617 37.5047C144.502 38.7842 143.344 39.7147 142.071 39.7147ZM154.341 32.1545L151.794 38.319L149.248 32.1545H146.932L150.752 40.878L148.553 45.7631H150.868L156.888 32.1545H154.341ZM134.894 41.3433H136.978V26.9203H134.894V41.3433Z" fill="white"/>
<defs>
<linearGradient id="paint0_linear_1_35" x1="35.9608" y1="42.7731" x2="13.0135" y2="36.6521" gradientUnits="userSpaceOnUse">
<stop stop-color="#4998D3"/>
<stop offset="0.01" stop-color="#4A99D3"/>
<stop offset="0.26" stop-color="#42BAEB"/>
<stop offset="0.51" stop-color="#41C7F2"/>
<stop offset="0.76" stop-color="#56C9E9"/>
<stop offset="1" stop-color="#5BCAE8"/>
</linearGradient>
<linearGradient id="paint1_linear_1_35" x1="49.9484" y1="29.8117" x2="21.937" y2="29.8117" gradientUnits="userSpaceOnUse">
<stop stop-color="#FEE000"/>
<stop offset="0.41" stop-color="#FEBD11"/>
<stop offset="0.78" stop-color="#FAA51A"/>
<stop offset="1" stop-color="#F99B1C"/>
</linearGradient>
<linearGradient id="paint2_linear_1_35" x1="29.8387" y1="36.7037" x2="11.4313" y2="5.77579" gradientUnits="userSpaceOnUse">
<stop stop-color="#EF4149"/>
<stop offset="1" stop-color="#C31E63"/>
</linearGradient>
<linearGradient id="paint3_linear_1_35" x1="9.67971" y1="43.046" x2="17.7035" y2="29.1744" gradientUnits="userSpaceOnUse">
<stop stop-color="#32A072"/>
<stop offset="0.07" stop-color="#2CA772"/>
<stop offset="0.48" stop-color="#4BBA71"/>
<stop offset="0.8" stop-color="#5EBD6B"/>
<stop offset="1" stop-color="#66BE69"/>
</linearGradient>
</defs>
</svg>
