<svg width="180" height="60" viewBox="0 0 180 60" fill="none" xmlns="http://www.w3.org/2000/svg">
<rect width="180" height="60" rx="5" fill="#4A99D3"/>
<path fill-rule="evenodd" clip-rule="evenodd" d="M46.5702 29.1392C46.5367 25.4659 49.6201 23.6785 49.7619 23.5951C48.015 21.0838 45.3085 20.7412 44.3575 20.7134C42.0841 20.4776 39.8792 22.0549 38.7208 22.0549C37.5396 22.0549 35.7571 20.7369 33.8343 20.7754C31.3615 20.8124 29.0476 22.2251 27.7788 24.418C25.1599 28.8898 27.1134 35.4612 29.6218 39.076C30.8771 40.8456 32.3432 42.8226 34.2632 42.7528C36.1411 42.6765 36.8429 41.5723 39.1091 41.5723C41.3546 41.5723 42.0136 42.7528 43.9713 42.7086C45.9875 42.6765 47.2556 40.9304 48.4667 39.1444C49.9172 37.1154 50.4999 35.1171 50.5227 35.0145C50.4757 34.9981 46.6087 33.5426 46.5702 29.1392ZM42.8721 18.336C43.8823 17.0893 44.5733 15.3952 44.3817 13.6747C42.9198 13.7388 41.091 14.6721 40.0388 15.8903C39.1069 16.9646 38.2748 18.7243 38.49 20.3793C40.1321 20.5004 41.8184 19.5621 42.8721 18.336ZM69.2536 36.1736L67.9535 32.2125C67.816 31.8079 67.5581 30.8547 67.1776 29.355H67.1313C66.9008 30.3108 66.6574 31.2634 66.4011 32.2125L65.1237 36.1736H69.2536ZM73.749 42.4984H71.1244L69.6868 38.043H64.6899L63.3199 42.4984H60.7645L65.7158 27.3296H68.7735L73.749 42.4984ZM83.9715 36.9843C83.9715 35.9192 83.7286 35.0415 83.2406 34.3512C82.7084 33.6302 81.9924 33.2705 81.0962 33.2705C80.4878 33.2705 79.9349 33.4707 79.4419 33.8668C78.9475 34.2657 78.6241 34.7858 78.473 35.4312C78.3961 35.7326 78.3583 35.9784 78.3583 36.1721V37.9959C78.3583 38.7917 78.6056 39.4635 79.1 40.0121C79.5944 40.5599 80.237 40.8335 81.0278 40.8335C81.9561 40.8335 82.6777 40.4801 83.195 39.7756C83.7122 39.0703 83.9715 38.1399 83.9715 36.9843ZM86.4813 36.8953C86.4813 38.7554 85.972 40.2258 84.9525 41.3051C84.0392 42.2662 82.9057 42.7464 81.5521 42.7464C80.0917 42.7464 79.0423 42.2284 78.4032 41.1933H78.3569V46.9553H75.8927V35.1612C75.8927 33.9921 75.862 32.7917 75.8015 31.5607H77.9687L78.1062 33.294H78.1525C78.9739 31.9881 80.2213 31.3363 81.8948 31.3363C83.2028 31.3363 84.2949 31.8456 85.1684 32.8658C86.0446 33.8867 86.4813 35.2296 86.4813 36.8953ZM96.7266 36.9843C96.7266 35.9192 96.483 35.0415 95.995 34.3512C95.4621 33.6302 94.7497 33.2705 93.8513 33.2705C93.2422 33.2705 92.6908 33.4707 92.1964 33.8668C91.702 34.2657 91.3792 34.7858 91.2275 35.4312C91.1527 35.7326 91.1135 35.9784 91.1135 36.1721V37.9959C91.1135 38.7917 91.3607 39.4635 91.853 40.0121C92.3481 40.5585 92.99 40.8335 93.7836 40.8335C94.7112 40.8335 95.4336 40.4801 95.9501 39.7756C96.468 39.0703 96.7266 38.1399 96.7266 36.9843ZM99.2372 36.8953C99.2372 38.7554 98.7271 40.2258 97.7069 41.3051C96.795 42.2662 95.6609 42.7464 94.308 42.7464C92.8475 42.7464 91.7974 42.2284 91.1591 41.1933H91.1135V46.9553H88.6492V35.1612C88.6492 33.9921 88.6186 32.7917 88.558 31.5607H90.7252L90.8627 33.294H90.909C91.7297 31.9881 92.9765 31.3363 94.6514 31.3363C95.9579 31.3363 97.0501 31.8456 97.9263 32.8658C98.7991 33.8867 99.2372 35.2296 99.2372 36.8953ZM113.498 38.2446C113.498 39.5348 113.044 40.5849 112.132 41.3956C111.13 42.2811 109.735 42.7236 107.943 42.7236C106.288 42.7236 104.961 42.4087 103.957 41.7782L104.528 39.7528C105.61 40.3982 106.797 40.7217 108.09 40.7217C109.017 40.7217 109.74 40.5143 110.259 40.1019C110.776 39.6887 111.033 39.1351 111.033 38.4441C111.033 37.8285 110.82 37.3099 110.394 36.8896C109.97 36.4692 109.262 36.0774 108.272 35.7162C105.579 34.7259 104.234 33.2747 104.234 31.3669C104.234 30.1202 104.706 29.0971 105.65 28.3013C106.59 27.5049 107.846 27.1073 109.416 27.1073C110.815 27.1073 111.977 27.3474 112.906 27.8269L112.289 29.8088C111.422 29.3436 110.443 29.1107 109.346 29.1107C108.479 29.1107 107.802 29.3215 107.317 29.7411C106.906 30.1166 106.701 30.5733 106.701 31.1147C106.701 31.7145 106.936 32.2104 107.407 32.6001C107.817 32.9606 108.562 33.3503 109.643 33.7706C110.967 34.2964 111.939 34.9105 112.564 35.615C113.187 36.3175 113.498 37.1966 113.498 38.2446H113.498ZM121.645 33.3845H118.929V38.6948C118.929 40.0456 119.407 40.7202 120.367 40.7202C120.807 40.7202 121.172 40.6832 121.461 40.6077L121.529 42.4528C121.044 42.6324 120.405 42.7221 119.613 42.7221C118.64 42.7221 117.88 42.4293 117.33 41.8444C116.784 41.2588 116.509 40.2757 116.509 38.895V33.3823H114.891V31.5585H116.508V29.5552L118.929 28.8357V31.5585H121.645V33.3845ZM131.342 37.0185C131.342 36.0097 131.124 35.1448 130.681 34.4224C130.165 33.5497 129.426 33.1144 128.469 33.1144C127.479 33.1144 126.727 33.5504 126.21 34.4224C125.767 35.1456 125.549 36.024 125.549 37.0641C125.549 38.0729 125.767 38.9378 126.21 39.658C126.742 40.5314 127.487 40.9667 128.447 40.9667C129.387 40.9667 130.126 40.5222 130.659 39.6352C131.114 38.9 131.342 38.0259 131.342 37.0185ZM133.898 36.9401C133.898 38.6214 133.411 40.0014 132.438 41.0807C131.417 42.1921 130.063 42.7464 128.374 42.7464C126.747 42.7464 125.451 42.2135 124.485 41.1491C123.519 40.0848 123.036 38.7411 123.036 37.1211C123.036 35.4255 123.534 34.0377 124.531 32.9577C125.525 31.8777 126.868 31.337 128.557 31.337C130.184 31.337 131.493 31.8691 132.482 32.9349C133.427 33.9694 133.898 35.3037 133.898 36.9394V36.9401ZM141.908 33.6979C141.651 33.6521 141.391 33.6294 141.131 33.6302C140.264 33.6302 139.594 33.953 139.122 34.5991C138.712 35.1691 138.506 35.89 138.506 36.7592V42.4984H136.044L136.067 35.0052C136.067 33.7442 136.036 32.5972 135.974 31.5614H138.12L138.211 33.6545H138.279C138.539 32.9349 138.949 32.3564 139.511 31.9219C140.06 31.5307 140.653 31.3363 141.292 31.3363C141.52 31.3363 141.725 31.3519 141.908 31.3804V33.6979ZM150.578 35.8815C150.594 35.1619 150.433 34.5393 150.1 34.0135C149.673 33.3374 149.017 33.0005 148.135 33.0005C147.33 33.0005 146.675 33.3296 146.175 33.9907C145.765 34.5165 145.52 35.1463 145.445 35.8808H150.578V35.8815ZM152.927 36.512C152.927 36.9473 152.899 37.3149 152.837 37.6141H145.445C145.474 38.6948 145.832 39.5212 146.518 40.0912C147.141 40.6005 147.946 40.8563 148.936 40.8563C150.03 40.8563 151.029 40.6839 151.926 40.3384L152.312 42.0254C151.263 42.4771 150.024 42.7022 148.594 42.7022C146.875 42.7022 145.525 42.2021 144.543 41.2047C143.562 40.2073 143.072 38.8679 143.072 37.1881C143.072 35.5388 143.528 34.1653 144.442 33.0703C145.399 31.9005 146.692 31.3156 148.319 31.3156C149.918 31.3156 151.128 31.8998 151.95 33.0696C152.6 33.9986 152.927 35.1477 152.927 36.512ZM67.1613 18.0297C67.1613 17.1605 66.9283 16.4937 66.461 16.0285C65.9943 15.5647 65.3125 15.3325 64.4142 15.3325C64.033 15.3325 63.7089 15.3574 63.4389 15.4094V20.9827C63.5885 21.0055 63.8606 21.0154 64.2574 21.0154C65.1836 21.0154 65.8996 20.7611 66.4033 20.2532C66.9076 19.7445 67.1613 19.0036 67.1613 18.0304V18.0297ZM68.4386 17.9969C68.4386 19.3391 68.0304 20.3486 67.2161 21.0268C66.461 21.6531 65.3888 21.9665 63.9995 21.9665C63.4077 21.9715 62.8161 21.9418 62.2278 21.8775V14.546C62.9179 14.4396 63.6154 14.3879 64.3137 14.3914C65.6374 14.3914 66.6348 14.6749 67.3073 15.2427C68.061 15.8839 68.4386 16.8022 68.4386 17.9962V17.9969ZM73.9535 19.208C73.9535 18.7122 73.8452 18.2869 73.6286 17.9328C73.375 17.5039 73.0131 17.2895 72.5429 17.2895C72.0563 17.2895 71.6858 17.5032 71.4315 17.9321C71.2149 18.2869 71.1074 18.7186 71.1074 19.2294C71.1074 19.7253 71.2156 20.1506 71.4322 20.5046C71.6944 20.9335 72.0591 21.148 72.5308 21.148C72.9938 21.148 73.3565 20.93 73.6172 20.4932C73.8416 20.132 73.9535 19.7039 73.9535 19.208ZM75.2102 19.1689C75.2102 19.9953 74.9708 20.6721 74.4921 21.2035C73.9905 21.7499 73.3258 22.0221 72.4966 22.0221C71.6965 22.0221 71.0596 21.7613 70.5844 21.237C70.1107 20.7134 69.8742 20.0537 69.8742 19.2579C69.8742 18.4258 70.1178 17.7433 70.6079 17.2133C71.0981 16.6832 71.7564 16.4175 72.5863 16.4175C73.3864 16.4175 74.029 16.6782 74.5156 17.2012C74.9779 17.7098 75.2102 18.3667 75.2102 19.1689ZM84.2892 16.5265L82.5844 21.9003H81.4752L80.7685 19.5671C80.5927 18.9963 80.4467 18.4168 80.331 17.8309H80.309C80.2044 18.4193 80.0579 18.9995 79.8708 19.5671L79.1206 21.9003H77.9993L76.3963 16.5265H77.6409L78.2572 19.0812C78.4061 19.6854 78.5286 20.261 78.6269 20.8053H78.6483C78.7388 20.3565 78.8884 19.7844 79.0985 19.0926L79.8715 16.5279H80.8582L81.5991 19.0378C81.7787 19.6505 81.924 20.2396 82.0359 20.8067H82.0693C82.1608 20.2108 82.2845 19.6203 82.4398 19.0378L83.1009 16.5279H84.2899V16.5265H84.2892ZM90.5678 21.9003H89.3567V18.8226C89.3567 17.8744 88.9919 17.3999 88.2595 17.3999C87.8998 17.3999 87.6091 17.5296 87.384 17.791C87.1625 18.0464 87.0428 18.3743 87.0477 18.7122V21.8988H85.8366V18.0625C85.8366 17.5901 85.8216 17.0786 85.7924 16.5244H86.8568L86.9138 17.365H86.9473C87.0883 17.1036 87.2985 16.8877 87.5742 16.716C87.9049 16.5144 88.2855 16.4097 88.6727 16.4139C89.1814 16.4139 89.6039 16.5757 89.9408 16.9005C90.359 17.2988 90.5678 17.8922 90.5678 18.6816V21.9003ZM92.6979 21.9003H93.9083V14.0615H92.6979V21.9003ZM99.7815 19.208C99.7815 18.7122 99.6725 18.2869 99.4566 17.9328C99.2037 17.5039 98.8404 17.2895 98.3716 17.2895C97.8836 17.2895 97.5139 17.5032 97.2602 17.9321C97.0437 18.2869 96.9361 18.7186 96.9361 19.2294C96.9361 19.7253 97.0444 20.1506 97.2609 20.5046C97.5231 20.9335 97.8879 21.148 98.3595 21.148C98.8226 21.148 99.1838 20.93 99.4452 20.4932C99.6703 20.132 99.7815 19.7039 99.7815 19.208ZM101.039 19.1689C101.039 19.9953 100.8 20.6721 100.321 21.2035C99.8192 21.7499 99.1538 22.0221 98.3253 22.0221C97.5238 22.0221 96.8876 21.7613 96.4139 21.237C95.9394 20.7134 95.7029 20.0537 95.7029 19.2579C95.7029 18.4258 95.9465 17.7433 96.4367 17.2133C96.9268 16.6832 97.5851 16.4175 98.4144 16.4175C99.2151 16.4175 99.8563 16.6782 100.344 17.2012C100.807 17.7098 101.039 18.3667 101.039 19.1689ZM105.643 20.053V19.2258C104.307 19.2031 103.639 19.5642 103.639 20.3087C103.639 20.5887 103.715 20.7989 103.871 20.9385C104.028 21.0788 104.226 21.1487 104.463 21.1487C104.729 21.1487 104.977 21.0653 105.204 20.9C105.34 20.8057 105.452 20.6793 105.529 20.5319C105.605 20.3845 105.645 20.2205 105.643 20.0544V20.053ZM106.901 21.901H105.813L105.723 21.2819H105.689C105.317 21.7756 104.787 22.0228 104.098 22.0228C103.584 22.0228 103.168 21.8597 102.854 21.5362C102.57 21.242 102.428 20.8758 102.428 20.4419C102.428 19.7851 102.705 19.285 103.263 18.9387C103.82 18.5918 104.604 18.4222 105.613 18.4301V18.3289C105.613 17.6208 105.236 17.2674 104.481 17.2674C103.944 17.2674 103.47 17.4013 103.061 17.6657L102.815 16.8813C103.321 16.5721 103.946 16.4175 104.684 16.4175C106.108 16.4175 106.822 17.1584 106.822 18.6402V20.6186C106.822 21.1558 106.849 21.5832 106.9 21.9003L106.901 21.901ZM112.527 19.6341V18.7378C112.527 18.5832 112.516 18.4579 112.494 18.3617C112.429 18.0799 112.275 17.8263 112.056 17.6379C111.831 17.4437 111.543 17.3396 111.246 17.3458C110.794 17.3458 110.441 17.5217 110.18 17.8765C109.923 18.2306 109.792 18.6837 109.792 19.2365C109.792 19.7673 109.916 20.1983 110.164 20.5303C110.426 20.8836 110.78 21.0603 111.223 21.0603C111.62 21.0603 111.938 20.9129 112.18 20.6179C112.413 20.3451 112.527 20.0173 112.527 19.6341ZM113.783 21.8996H112.708L112.651 21.0375H112.618C112.274 21.6937 111.69 22.0221 110.868 22.0221C110.211 22.0221 109.664 21.7678 109.232 21.2598C108.798 20.7511 108.582 20.0914 108.582 19.2807C108.582 18.4116 108.817 17.7063 109.288 17.1684C109.744 16.6668 110.304 16.4161 110.969 16.4161C111.701 16.4161 112.213 16.659 112.505 17.1456H112.527V14.0615H113.74V20.4533C113.74 20.9763 113.754 21.4586 113.783 21.901V21.8996ZM122.886 19.208C122.886 18.7122 122.778 18.2869 122.561 17.9328C122.306 17.5039 121.946 17.2895 121.474 17.2895C120.988 17.2895 120.619 17.5032 120.363 17.9321C120.146 18.2869 120.038 18.7186 120.038 19.2294C120.038 19.7253 120.147 20.1506 120.363 20.5046C120.625 20.9335 120.99 21.148 121.463 21.148C121.924 21.148 122.289 20.93 122.55 20.4932C122.773 20.132 122.886 19.7039 122.886 19.208ZM124.141 19.1689C124.141 19.9953 123.902 20.6721 123.423 21.2035C122.922 21.7499 122.258 22.0221 121.428 22.0221C120.629 22.0221 119.992 21.7613 119.516 21.237C119.042 20.7134 118.805 20.0537 118.805 19.2579C118.805 18.4258 119.049 17.7433 119.539 17.2133C120.029 16.6832 120.688 16.4175 121.519 16.4175C122.317 16.4175 122.961 16.6782 123.447 17.2012C123.909 17.7098 124.141 18.3667 124.141 19.1689ZM130.654 21.9003H129.443V18.8226C129.443 17.8744 129.078 17.3999 128.344 17.3999C127.985 17.3999 127.695 17.5296 127.47 17.791C127.248 18.0461 127.129 18.3742 127.134 18.7122V21.8988H125.922V18.0625C125.922 17.5901 125.908 17.0786 125.88 16.5244H126.942L126.999 17.365H127.033C127.175 17.1036 127.385 16.8877 127.66 16.716C127.991 16.5145 128.372 16.4099 128.759 16.4139C129.266 16.4139 129.69 16.5757 130.026 16.9005C130.446 17.2988 130.653 17.8922 130.653 18.6816V21.9003H130.654ZM138.804 17.4213H137.471V20.0316C137.471 20.6956 137.708 21.0268 138.177 21.0268C138.395 21.0268 138.575 21.009 138.717 20.9713L138.748 21.8775C138.509 21.9665 138.194 22.0107 137.808 22.0107C137.329 22.0107 136.957 21.8668 136.688 21.5797C136.417 21.2926 136.283 20.8096 136.283 20.1313V17.4213H135.486V16.5265H136.283V15.5419L137.47 15.1886V16.5258H138.804V17.4213H138.805H138.804ZM145.216 21.9003H144.004V18.8454C144.004 17.8822 143.639 17.3999 142.907 17.3999C142.346 17.3999 141.962 17.6792 141.751 18.2377C141.712 18.3774 141.692 18.5221 141.695 18.6673V21.8988H140.486V14.0615H141.696V17.2995H141.719C142.101 16.7103 142.647 16.4161 143.355 16.4161C143.857 16.4161 144.272 16.5778 144.602 16.9027C145.012 17.3073 145.217 17.9093 145.217 18.7051V21.9003H145.216ZM150.675 18.6502C150.684 18.2961 150.605 17.9905 150.44 17.7326C150.23 17.4013 149.91 17.2346 149.476 17.2346C149.081 17.2346 148.759 17.3964 148.512 17.7212C148.307 17.9906 148.183 18.3128 148.153 18.6502H150.675H150.675ZM151.831 18.9594C151.831 19.1731 151.814 19.3534 151.785 19.5008H148.153C148.169 20.0316 148.343 20.4362 148.679 20.7169C148.986 20.9677 149.383 21.0931 149.869 21.0931C150.405 21.0931 150.895 21.009 151.337 20.8388L151.527 21.6687C151.01 21.8896 150.402 22.0007 149.699 22.0007C148.854 22.0007 148.19 21.7556 147.709 21.2655C147.226 20.7754 146.987 20.1171 146.987 19.2921C146.987 18.4814 147.21 17.8067 147.66 17.2688C148.129 16.6946 148.764 16.4068 149.565 16.4068C150.348 16.4068 150.943 16.6946 151.346 17.2688C151.67 17.7248 151.83 18.289 151.83 18.9594" fill="white"/>
</svg>
